<?xml version="1.0" standalone="no"?>
<!DOCTYPE svg PUBLIC "-//W3C//DTD SVG 20010904//EN"
 "http://www.w3.org/TR/2001/REC-SVG-20010904/DTD/svg10.dtd">
<svg version="1.0" xmlns="http://www.w3.org/2000/svg"
 width="1159.000000pt" height="1159.000000pt" viewBox="0 0 1159.000000 1159.000000"
 preserveAspectRatio="xMidYMid meet">
<metadata>
Created by potrace 1.14, written by Peter Selinger 2001-2017
</metadata>
<g transform="translate(0.000000,1159.000000) scale(0.100000,-0.100000)"
fill="#000000" stroke="none">
<path d="M5627 10003 c-2 -1 -43 -4 -92 -7 -98 -6 -168 -13 -230 -21 -22 -3
-60 -8 -85 -10 -25 -3 -52 -7 -60 -9 -8 -1 -37 -6 -65 -11 -27 -4 -102 -19
-165 -32 -63 -14 -126 -27 -140 -30 -14 -2 -32 -7 -40 -10 -23 -9 -44 -14 -60
-15 -8 0 -21 -5 -27 -11 -7 -5 -13 -7 -13 -3 0 3 -16 0 -35 -8 -19 -8 -35 -12
-35 -9 0 3 -7 -1 -17 -8 -9 -8 -18 -13 -20 -11 -6 5 -58 -11 -163 -50 -58 -22
-109 -41 -115 -42 -5 -2 -32 -13 -58 -24 -27 -12 -51 -22 -53 -22 -15 0 -353
-166 -424 -208 -19 -12 -54 -31 -77 -43 -24 -13 -43 -26 -43 -31 0 -4 -5 -8
-10 -8 -16 0 -346 -223 -370 -249 -3 -3 -25 -22 -50 -41 -25 -19 -56 -44 -70
-56 -14 -12 -50 -43 -80 -70 -108 -93 -326 -309 -386 -384 -16 -19 -31 -37
-35 -40 -15 -12 -113 -134 -187 -235 -45 -60 -85 -114 -90 -120 -4 -5 -17 -26
-28 -45 -10 -19 -21 -37 -24 -40 -10 -9 -87 -134 -143 -230 -60 -104 -170
-327 -212 -430 -14 -36 -30 -74 -35 -85 -28 -60 -130 -367 -125 -376 3 -4 1
-10 -4 -13 -4 -3 -12 -20 -16 -38 -4 -18 -9 -37 -10 -43 -21 -80 -35 -135 -39
-155 -2 -14 -12 -59 -21 -100 -9 -41 -18 -91 -21 -110 -3 -19 -9 -57 -14 -85
-5 -27 -12 -75 -15 -105 -3 -30 -8 -75 -11 -100 -2 -25 -7 -79 -9 -120 -2 -41
-5 -75 -6 -75 -4 0 -6 -461 -1 -469 3 -5 6 -39 7 -75 5 -138 41 -391 80 -568
9 -38 18 -83 20 -102 3 -18 10 -41 15 -51 6 -10 10 -29 10 -42 0 -13 5 -29 12
-36 7 -7 9 -12 6 -12 -7 0 37 -148 85 -285 31 -89 54 -148 104 -265 71 -171
327 -637 355 -648 4 -2 8 -8 8 -13 0 -8 58 -97 70 -109 3 -3 39 -49 79 -102
40 -54 78 -104 84 -111 7 -7 37 -42 67 -77 108 -129 280 -305 390 -400 35 -30
71 -62 79 -71 95 -94 448 -342 646 -454 151 -86 488 -246 545 -260 8 -2 49
-17 90 -33 41 -16 107 -39 145 -51 39 -13 77 -25 85 -28 8 -3 24 -8 35 -10 37
-8 50 -11 53 -13 1 -2 7 -4 12 -5 6 -1 11 -3 13 -5 1 -1 9 -3 17 -5 8 -1 33
-7 55 -13 22 -6 51 -13 65 -16 34 -7 66 -14 120 -25 126 -28 299 -54 430 -66
30 -2 89 -7 130 -11 148 -13 630 -6 710 11 14 3 48 7 75 9 28 2 66 6 85 10 19
3 51 8 70 10 75 11 342 67 359 76 10 5 21 7 24 4 3 -3 14 -1 24 4 10 6 32 12
48 15 17 3 53 13 80 22 28 9 60 18 72 21 24 5 228 77 278 98 17 7 46 19 65 26
19 7 39 17 45 22 5 4 17 8 27 8 10 0 18 5 18 10 0 6 3 9 8 8 23 -5 339 157
481 246 22 15 45 26 50 26 5 0 11 3 13 8 2 4 37 30 78 56 79 52 256 181 278
203 7 7 16 13 20 13 4 0 25 17 47 36 22 20 62 55 90 78 110 91 404 395 487
502 12 16 28 34 34 41 6 6 44 56 84 110 41 54 86 115 102 135 15 20 28 39 28
43 0 3 15 27 33 53 98 142 345 609 348 657 0 2 11 31 25 62 15 32 39 96 56
143 16 47 34 94 39 105 6 11 11 32 13 46 1 13 6 31 10 38 5 7 17 45 28 85 10
39 21 78 23 86 7 24 34 135 39 161 42 204 63 341 81 519 2 19 6 95 10 169 3
74 8 138 11 143 3 4 0 8 -7 8 -8 0 -7 5 2 17 12 14 12 16 0 8 -10 -6 -12 -4
-6 5 11 17 12 100 2 100 -4 0 -3 8 2 19 6 10 8 20 6 23 -3 2 -7 60 -10 129 -3
68 -7 140 -10 159 -2 19 -7 64 -10 100 -4 35 -8 67 -10 70 -2 3 -6 30 -9 60
-8 76 -50 287 -83 415 -3 11 -6 27 -7 35 -1 9 -5 20 -8 25 -3 6 -9 26 -14 45
-10 43 -9 42 -17 60 -4 8 -9 26 -11 40 -6 28 -75 225 -100 281 -8 20 -12 39
-9 43 4 3 1 6 -5 6 -7 0 -12 6 -12 13 0 8 -8 29 -17 48 -10 19 -18 40 -19 46
-3 15 -129 270 -182 368 -123 225 -371 575 -522 736 -25 27 -45 49 -43 49 6 0
-246 250 -305 303 -71 64 -279 231 -367 293 -85 61 -278 185 -360 231 -200
113 -551 268 -750 333 -38 12 -88 28 -110 36 -22 7 -52 15 -67 18 -15 2 -33 8
-39 12 -7 4 -22 8 -33 10 -12 2 -59 13 -106 24 -200 48 -528 100 -607 96 -18
-1 -33 1 -33 4 0 3 -26 6 -58 7 -92 4 -443 8 -445 6z"/>
</g>
</svg>
